<?xml version="1.0" standalone="no"?>
<!DOCTYPE svg PUBLIC "-//W3C//DTD SVG 20010904//EN"
 "http://www.w3.org/TR/2001/REC-SVG-20010904/DTD/svg10.dtd">
<svg version="1.0" xmlns="http://www.w3.org/2000/svg"
 width="357.000000pt" height="357.000000pt" viewBox="0 0 357.000000 357.000000"
 preserveAspectRatio="xMidYMid meet">
<metadata>
Created by potrace 1.14, written by Peter Selinger 2001-2017
</metadata>
<g transform="translate(0.000000,357.000000) scale(0.100000,-0.100000)"
fill="#000000" stroke="none">
<path d="M364 3490 c-90 -46 -143 -113 -198 -252 -75 -189 -55 -355 50 -427
19 -13 34 -27 34 -30 0 -4 -43 -53 -96 -110 -108 -116 -114 -134 -51 -164 36
-17 44 -27 30 -40 -8 -8 -38 -92 -59 -162 -10 -31 -17 -114 -21 -220 -4 -143
-8 -175 -24 -201 -16 -26 -19 -51 -19 -151 0 -116 1 -120 31 -169 73 -115 238
-284 391 -402 24 -18 57 -43 73 -56 46 -36 207 -126 225 -126 9 0 20 -4 25 -9
6 -5 42 -19 80 -31 56 -19 100 -24 223 -28 151 -4 154 -5 147 -26 -35 -107
-43 -210 -24 -312 12 -70 55 -205 79 -254 10 -19 32 -64 50 -99 17 -35 55 -99
83 -142 l52 -79 44 0 45 0 -30 32 c-69 74 -166 252 -218 398 -61 172 -67 347
-15 441 24 42 24 42 139 70 139 34 145 34 193 9 47 -25 49 -25 41 5 l-6 25 77
0 c79 0 94 14 29 26 -19 3 -33 11 -32 16 2 6 42 23 88 38 174 56 273 121 410
268 234 249 359 487 309 585 -61 119 -337 246 -646 297 -40 6 -73 15 -72 18 0
4 21 24 47 46 59 49 105 110 122 161 7 22 13 79 12 127 -1 132 -28 202 -112
287 -44 45 -69 61 -123 80 -37 13 -67 25 -65 26 2 2 32 10 68 19 64 17 104 41
94 57 -7 13 -35 11 -90 -5 -27 -8 -76 -21 -109 -30 -123 -31 -351 -100 -393
-117 -24 -11 -61 -22 -83 -25 -35 -6 -39 -4 -39 15 0 33 -35 27 -50 -9 -10
-24 -10 -33 0 -45 16 -19 80 -19 127 0 19 8 42 15 50 15 13 0 13 -3 -1 -22 -9
-13 -28 -48 -43 -78 -26 -52 -28 -63 -28 -195 0 -138 1 -141 32 -201 l31 -61
-151 -7 c-134 -5 -276 -20 -402 -41 l-40 -7 0 74 c-1 102 -18 151 -71 204 -24
25 -44 46 -44 48 0 3 17 7 38 11 61 10 102 40 102 73 0 28 -26 62 -48 62 -21
0 -24 -21 -6 -41 9 -10 15 -22 12 -25 -17 -16 -279 -64 -354 -64 -48 0 -84 19
-84 44 0 23 59 89 133 148 27 23 55 58 70 90 14 29 34 60 44 68 99 81 133 115
131 129 -2 10 -12 15 -24 13 -15 -2 -23 6 -32 32 -17 47 -71 80 -117 72 -55
-11 -113 -90 -103 -143 6 -32 35 -27 42 7 3 18 15 45 27 61 38 54 109 29 109
-40 0 -27 -14 -46 -90 -122 -100 -99 -99 -98 -157 -39 -106 108 -5 474 150
549 47 23 110 27 154 10 60 -23 115 -105 142 -214 26 -103 44 -116 101 -75 41
29 151 69 239 85 136 26 343 17 521 -24 153 -35 382 -157 488 -261 56 -55 72
-49 72 27 0 164 56 332 132 397 107 92 266 78 353 -31 58 -73 79 -145 83 -279
4 -154 -13 -222 -69 -276 -39 -37 -115 -68 -169 -68 -59 0 -110 72 -110 155 0
61 30 107 69 105 56 -4 65 5 35 34 -27 27 -70 20 -108 -19 -61 -61 -63 -170
-5 -252 19 -26 44 -52 55 -57 20 -9 38 -38 128 -209 49 -92 55 -117 31 -117
-20 0 -160 -65 -197 -91 -46 -33 -25 -34 54 -1 40 16 97 36 126 43 46 11 55
11 62 -1 23 -36 112 -359 136 -490 7 -41 21 -94 30 -118 16 -42 50 -76 66 -66
11 7 10 51 -2 74 -6 11 -6 21 -1 25 5 3 74 13 153 22 120 13 160 14 248 4 155
-18 247 -45 308 -91 l52 -40 0 39 c0 45 -15 60 -90 95 -119 54 -343 76 -539
52 -75 -10 -138 -13 -143 -8 -10 10 -38 103 -79 262 -34 130 -41 155 -62 223
-11 36 -12 49 -4 52 12 4 115 25 121 25 12 0 34 -94 55 -230 l9 -55 1 84 c0
47 -6 109 -15 143 -8 33 -13 62 -11 64 2 2 38 7 79 10 l76 7 14 -59 13 -59 3
61 3 61 91 7 c50 3 179 6 287 7 131 0 188 3 173 10 -35 14 -386 31 -479 23
l-82 -6 -20 33 -21 34 0 -32 c0 -35 -4 -36 -110 -48 -55 -5 -55 -5 -79 32 -15
23 -26 33 -29 25 -2 -8 1 -19 7 -25 22 -22 12 -46 -23 -52 -98 -19 -92 -23
-163 114 -35 68 -62 129 -59 136 2 7 24 17 48 23 90 23 157 93 184 195 21 78
18 267 -5 349 -50 181 -186 291 -341 275 -180 -19 -294 -161 -325 -404 -4 -29
-11 -53 -16 -53 -6 0 -33 17 -62 38 -214 155 -461 231 -752 232 -171 0 -316
-29 -424 -84 -38 -20 -47 -16 -57 27 -19 91 -83 192 -144 229 -53 32 -171 36
-226 8z m1390 -610 c116 -59 176 -159 184 -306 4 -84 2 -96 -22 -147 -26 -56
-110 -141 -170 -172 -34 -18 -124 -19 -293 -2 -114 12 -124 15 -154 42 -57 54
-72 104 -71 240 0 99 4 128 21 168 28 65 67 112 126 151 75 50 99 56 220 53
94 -2 117 -6 159 -27z m-1248 -384 c61 -28 91 -71 106 -153 7 -42 7 -69 -1
-99 -12 -44 -10 -43 -121 -79 -30 -10 -93 -35 -140 -56 -84 -36 -86 -37 -115
-20 -45 26 -90 120 -90 190 1 97 52 176 150 230 38 20 155 13 211 -13z m1014
-306 c273 -31 362 -42 420 -56 142 -33 228 -58 285 -85 33 -16 63 -29 68 -29
16 0 125 -80 151 -110 14 -17 26 -42 26 -54 0 -152 -312 -546 -535 -675 -22
-13 -126 -52 -231 -87 -213 -70 -325 -90 -442 -80 -75 7 -189 32 -207 46 -5 4
-19 10 -29 14 -19 7 -19 6 -1 -13 10 -12 40 -35 66 -52 27 -17 49 -34 49 -36
0 -14 -249 10 -305 28 -203 67 -438 238 -637 461 -147 164 -180 247 -138 347
48 109 202 210 445 290 159 52 370 94 530 105 78 6 390 -3 485 -14z m-1340
-112 l30 -37 -37 -26 c-59 -40 -63 -36 -63 63 l1 87 19 -25 c11 -14 34 -42 50
-62z"/>
<path d="M1518 2609 c-21 -12 -24 -49 -6 -67 18 -18 56 -14 68 7 14 27 13 37
-6 55 -18 18 -32 20 -56 5z"/>
<path d="M478 2339 c-23 -13 -23 -55 -2 -67 43 -24 88 36 49 65 -22 15 -25 16
-47 2z"/>
<path d="M1071 2142 c-16 -12 -6 -32 16 -32 9 0 31 -9 49 -21 57 -35 105 0 49
37 -29 19 -95 28 -114 16z"/>
<path d="M632 2040 c-33 -20 -57 -63 -48 -87 3 -7 17 -13 31 -13 21 0 25 5 25
28 0 17 10 38 25 52 45 42 24 55 -33 20z"/>
<path d="M830 1998 c0 -57 -23 -93 -130 -197 -70 -69 -90 -95 -95 -125 -8 -40
9 -74 21 -43 10 27 18 20 48 -42 98 -207 389 -418 644 -466 233 -45 390 23
442 192 25 81 25 125 1 196 -34 98 -99 183 -211 277 -88 73 -171 108 -308 131
-128 21 -227 48 -326 90 -37 16 -72 29 -77 29 -5 0 -9 -19 -9 -42z m70 -47 c0
-6 -5 -13 -10 -16 -6 -4 -8 -16 -4 -28 5 -17 4 -19 -6 -10 -8 7 -10 19 -5 30
5 10 7 21 7 26 -1 4 3 7 8 7 6 0 10 -4 10 -9z m20 -22 c-7 -11 -14 -18 -17
-15 -8 8 5 36 17 36 7 0 7 -6 0 -21z m61 -24 c-12 -53 -4 -141 14 -168 16 -25
16 -30 3 -43 -13 -13 -15 -11 -15 16 0 18 -4 35 -10 38 -14 10 -23 101 -12
130 12 31 1 48 -17 25 -14 -19 -18 -15 -8 12 10 24 50 15 45 -10z m387 -56
c23 -10 42 -22 42 -26 -1 -13 -71 -84 -80 -81 -14 5 -98 123 -93 130 6 12 82
-2 131 -23z m-508 17 c0 -2 -8 -10 -17 -17 -16 -13 -17 -12 -4 4 13 16 21 21
21 13z m25 -6 c3 -5 1 -10 -4 -10 -6 0 -11 5 -11 10 0 6 2 10 4 10 3 0 8 -4
11 -10z m-55 -60 c0 -5 -4 -10 -10 -10 -5 0 -10 5 -10 10 0 6 5 10 10 10 6 0
10 -4 10 -10z m685 -36 c64 -48 151 -152 185 -219 45 -89 47 -155 8 -235 -33
-66 -62 -85 -154 -100 -150 -24 -254 17 -332 132 -45 65 -58 134 -42 222 13
75 55 175 78 183 7 3 29 -9 47 -27 33 -32 35 -33 54 -16 11 10 32 36 47 57 32
46 52 46 109 3z m-749 -8 c-2 -46 -9 -51 -41 -30 l-26 17 22 23 c32 34 46 30
45 -10z m94 14 c0 -5 -2 -10 -4 -10 -3 0 -8 5 -11 10 -3 6 -1 10 4 10 6 0 11
-4 11 -10z m-30 -72 c0 -5 -4 -8 -10 -8 -5 0 -10 10 -10 23 0 18 2 19 10 7 5
-8 10 -18 10 -22z m-99 -22 c13 -6 25 -20 27 -31 4 -20 4 -20 -13 0 -12 15
-18 17 -22 7 -3 -9 -10 -4 -19 13 -15 30 -19 59 -5 37 4 -8 19 -19 32 -26z
m285 -13 c-10 -10 -19 5 -10 18 6 11 8 11 12 0 2 -7 1 -15 -2 -18z m54 -55
c16 -22 30 -45 30 -49 0 -13 -30 2 -30 15 0 6 -9 22 -20 36 -19 24 -25 40 -15
40 3 0 18 -19 35 -42z m-290 -8 c0 -5 -2 -10 -4 -10 -3 0 -8 5 -11 10 -3 6 -1
10 4 10 6 0 11 -4 11 -10z m-30 -10 c0 -5 -2 -10 -4 -10 -3 0 -8 5 -11 10 -3
6 -1 10 4 10 6 0 11 -4 11 -10z m23 -32 c4 -10 8 -10 15 1 8 11 12 10 21 -7
16 -30 14 -39 -4 -16 -8 11 -15 14 -15 7 0 -19 -14 -16 -28 7 -7 11 -8 20 -3
20 5 0 12 -6 14 -12z m50 -61 c4 3 7 4 7 0 0 -18 -21 -14 -30 5 -10 21 -10 21
3 6 8 -10 17 -15 20 -11z m40 -4 c-7 -2 -13 -11 -13 -19 0 -8 -4 -14 -10 -14
-5 0 -10 4 -10 8 0 12 22 32 35 31 5 0 4 -3 -2 -6z m22 -33 c-7 -23 12 -48 35
-45 8 1 9 0 3 -2 -7 -3 -13 -8 -13 -13 0 -4 -13 4 -29 19 -27 24 -28 27 -13
44 20 22 25 22 17 -3z m232 -42 c-3 -8 -6 -5 -6 6 -1 11 2 17 5 13 3 -3 4 -12
1 -19z m-168 -39 c-16 -10 -23 -4 -14 10 3 6 11 8 17 5 6 -4 5 -9 -3 -15z
m241 -93 c0 -11 -1 -11 -39 38 -17 21 -31 43 -31 49 0 5 16 -10 35 -34 19 -24
35 -48 35 -53z m-215 67 c10 -13 16 -15 27 -6 11 10 14 8 14 -8 0 -10 -2 -19
-4 -19 -10 0 -62 35 -62 42 0 13 12 9 25 -9z m75 -23 c0 -5 -5 -10 -11 -10 -5
0 -7 5 -4 10 3 6 8 10 11 10 2 0 4 -4 4 -10z m40 -10 c0 -5 -5 -10 -11 -10 -5
0 -7 5 -4 10 3 6 8 10 11 10 2 0 4 -4 4 -10z m24 -35 c-5 -20 -9 -24 -18 -14
-8 8 -8 13 2 16 6 3 12 12 12 21 0 8 2 13 5 10 4 -3 3 -18 -1 -33z m-44 5 c8
-5 11 -10 5 -10 -5 0 -17 5 -25 10 -8 5 -10 10 -5 10 6 0 17 -5 25 -10z m90
-10 c0 -5 -4 -10 -10 -10 -5 0 -10 5 -10 10 0 6 5 10 10 10 6 0 10 -4 10 -10z
m16 -36 c-9 -10 -32 -6 -53 10 -1 1 13 2 31 2 25 0 30 -3 22 -12z m44 -6 c0
-16 3 -19 11 -11 13 13 39 -6 39 -26 0 -14 1 -14 -48 9 -41 20 -58 36 -25 23
12 -5 15 -2 10 10 -3 9 -2 17 3 17 6 0 10 -10 10 -22z m130 -59 c10 -6 5 -7
-15 -3 -16 4 -34 11 -40 16 -11 12 31 1 55 -13z"/>
<path d="M975 2893 c-21 -21 -35 -57 -35 -92 0 -35 35 -81 61 -81 24 0 24 6
-1 37 -23 30 -25 70 -5 97 17 22 20 56 6 56 -5 0 -17 -7 -26 -17z"/>
<path d="M690 2678 c11 -18 20 -50 20 -70 0 -44 17 -59 37 -32 19 26 9 72 -24
106 -38 40 -58 37 -33 -4z"/>
<path d="M2950 1551 c-200 -67 -391 -160 -520 -254 -117 -86 -306 -258 -316
-289 -4 -13 7 -36 34 -71 83 -110 252 -405 252 -441 0 -15 -11 -20 -152 -75
-86 -34 -234 -80 -260 -81 -3 0 -24 37 -46 83 -37 75 -100 172 -107 165 -2 -2
0 -48 5 -104 9 -113 27 -162 69 -187 39 -23 74 -21 193 8 56 14 103 25 104 25
2 0 4 -10 4 -21 0 -41 42 -98 89 -121 95 -46 229 -28 370 48 35 19 65 33 68
30 14 -14 -127 -176 -154 -176 -7 0 -13 -4 -13 -9 0 -4 -23 -25 -52 -45 l-52
-36 55 0 c52 0 81 12 117 47 19 19 25 17 47 -17 27 -41 80 -42 111 -3 l22 27
35 -27 c26 -20 47 -27 79 -27 l42 0 -24 17 c-111 74 -189 154 -172 177 5 6 14
30 22 54 17 54 3 101 -58 196 -57 87 -90 109 -157 103 -27 -2 -58 -8 -67 -12
-13 -5 -22 3 -39 36 -44 88 -59 148 -59 245 0 103 5 124 29 124 9 0 45 34 81
75 129 150 312 292 480 373 85 41 214 82 225 71 3 -4 -4 -28 -15 -55 -32 -73
-60 -201 -60 -272 0 -52 -4 -67 -22 -86 -111 -113 -182 -246 -183 -337 0 -45
6 -66 31 -105 54 -88 146 -120 257 -89 95 25 96 25 133 -27 l34 -48 -53 -41
c-117 -92 -182 -158 -238 -241 -33 -48 -59 -90 -59 -94 0 -3 -9 -19 -21 -35
l-20 -29 30 0 c17 0 31 4 31 9 0 5 26 49 58 97 63 96 189 222 278 279 61 39
61 42 2 121 -21 28 -38 54 -38 57 0 4 15 14 33 23 17 9 49 30 71 47 32 26 41
29 57 19 18 -11 19 -8 19 54 0 73 2 73 -70 14 -102 -84 -255 -160 -320 -160
-32 0 -24 15 33 57 168 127 253 270 213 355 -23 47 -63 68 -130 68 -31 0 -56
4 -56 8 0 5 11 19 25 32 14 13 25 29 25 35 0 6 -16 32 -35 56 l-34 44 19 73
c19 75 22 82 77 145 32 36 33 38 17 63 -19 28 -37 28 -155 -2 -75 -19 -79 -18
-79 10 0 40 -18 76 -37 76 -10 -1 -56 -13 -103 -29z m94 -43 c11 -42 6 -54
-29 -71 -20 -9 -40 -17 -46 -17 -14 0 -236 -112 -289 -146 -138 -89 -230 -178
-273 -264 -20 -40 -22 -60 -22 -192 0 -104 4 -151 13 -160 6 -6 12 -19 12 -29
0 -9 11 -37 25 -63 14 -26 25 -50 25 -54 0 -16 -23 21 -75 123 -32 61 -63 117
-69 125 -6 8 -20 31 -30 50 -20 36 -47 78 -90 140 -14 19 -25 40 -25 45 -1 13
173 188 210 213 15 9 67 45 117 80 50 34 95 62 100 62 5 0 36 16 67 35 32 19
68 37 79 41 12 3 37 13 56 22 44 20 211 80 226 81 7 1 14 -9 18 -21z m-384
-305 c-92 -83 -146 -136 -187 -187 -18 -22 -36 -35 -42 -31 -19 11 29 83 94
140 60 52 190 145 203 145 4 0 -27 -30 -68 -67z m684 -218 c34 -15 36 -17 36
-64 0 -42 -6 -57 -44 -108 -43 -59 -143 -154 -210 -199 -24 -17 -44 -23 -57
-19 -25 8 -59 77 -59 120 0 71 118 258 173 274 50 14 121 12 161 -4z m-699
-513 c27 -21 85 -112 85 -135 0 -10 -8 -21 -17 -25 -10 -4 -39 -19 -64 -34
-73 -44 -154 -68 -231 -68 -108 0 -162 37 -156 109 l3 42 110 45 c61 25 119
48 130 51 11 4 34 14 50 24 32 18 57 16 90 -9z m125 -357 l23 -25 -23 -25
c-30 -32 -36 -31 -55 6 -15 29 -15 32 1 50 22 24 26 24 54 -6z"/>
<path d="M3546 1108 c9 -84 14 -86 14 -5 0 40 -4 67 -10 67 -7 0 -9 -21 -4
-62z"/>
</g>
</svg>
